<svg id="Layer_1" data-name="Layer 1" xmlns="http://www.w3.org/2000/svg" viewBox="0 0 500 500"><defs><style>.cls-1{fill:none;stroke:#231f20;stroke-width:11px;}.cls-1,.cls-2{stroke-miterlimit:10;}.cls-2{fill:#fff;stroke:#2f7066;stroke-width:18px;}.cls-3{font-size:49.33px;fill:#b79b61;font-family:Futura-Medium, Futura;font-weight:500;}.cls-4{fill:#275b53;}</style></defs><title>net.green-logo-final</title><path class="cls-1" d="M277.61,197.16h17.3A57.12,57.12,0,0,1,352,254.28v71.08a5.79,5.79,0,0,1-5.79,5.79h-192a5.79,5.79,0,0,1-5.79-5.79V282.27"/><path class="cls-1" d="M152.16,294.66H273.62a4.26,4.26,0,0,0,4-4.48V146.55a4.26,4.26,0,0,0-4-4.48H203.3a3.78,3.78,0,0,0-2.82,1.31l-51.34,57.77a4.79,4.79,0,0,0-1.17,3.18l.21,85.86A4.26,4.26,0,0,0,152.16,294.66Z"/><circle class="cls-1" cx="188.45" cy="334.05" r="23.88"/><circle class="cls-1" cx="310.56" cy="334.05" r="23.88"/><path class="cls-1" d="M290.54,231h5.38a35.56,35.56,0,0,1,35.56,35.56V272a.91.91,0,0,1-.91.91h-36a5,5,0,0,1-5-5v-36A.91.91,0,0,1,290.54,231Z"/><circle class="cls-2" cx="212.33" cy="222.2" r="38.5"/><text class="cls-3" transform="translate(196.67 229.47)">g<tspan class="cls-4" x="29.53" y="0">.</tspan></text></svg>