<svg id="Layer_1" data-name="Layer 1" xmlns="http://www.w3.org/2000/svg" viewBox="0 0 231.44 207.14"><defs><style>.cls-1,.cls-2{fill:none;}.cls-1{stroke:#231f20;}.cls-1,.cls-2,.cls-3{stroke-miterlimit:10;}.cls-1,.cls-3{stroke-width:11px;}.cls-2{stroke:#49a0d8;stroke-width:6px;}.cls-3{fill:#fff;stroke:#2f7066;}.cls-4{font-size:38.39px;fill:#b79b61;font-family:Futura-Medium, Futura;font-weight:500;}.cls-5{fill:#275b53;}</style></defs><title>renewable</title><path class="cls-1" d="M281.29,176.74a58.18,58.18,0,0,0-17.3-7.4,2.34,2.34,0,0,1-1.8-2.26V153a2.34,2.34,0,0,0-2.61-2.31A24.39,24.39,0,0,0,239,167.47a2.31,2.31,0,0,1-1.7,1.58,57.82,57.82,0,0,0-17.47,7,2.31,2.31,0,0,1-2.83-.32l-10-10a2.31,2.31,0,0,0-3.43.14,24.42,24.42,0,0,0-2.76,26.51,2.32,2.32,0,0,1-.08,2.31A58,58,0,0,0,193.3,212a2.34,2.34,0,0,1-2.26,1.8H177a2.34,2.34,0,0,0-2.31,2.61,24.4,24.4,0,0,0,16.77,20.61,2.32,2.32,0,0,1,1.58,1.7,58.24,58.24,0,0,0,7,17.48,2.28,2.28,0,0,1-.31,2.82l-10,10a2.33,2.33,0,0,0,.14,3.43,24.42,24.42,0,0,0,26.51,2.76,2.32,2.32,0,0,1,2.31.08,57.78,57.78,0,0,0,17.3,7.4,2.35,2.35,0,0,1,1.81,2.27v14.07a2.34,2.34,0,0,0,2.61,2.31A24.4,24.4,0,0,0,261,284.59a2.32,2.32,0,0,1,1.7-1.58,58.09,58.09,0,0,0,17.48-7,2.28,2.28,0,0,1,2.82.32l10,10a2.32,2.32,0,0,0,3.43-.15,24.38,24.38,0,0,0,2.76-26.51,2.3,2.3,0,0,1,.09-2.31,58.16,58.16,0,0,0,7.39-17.3,2.34,2.34,0,0,1,2.27-1.8H323a2.34,2.34,0,0,0,2.31-2.61A24.4,24.4,0,0,0,308.56,215a2.31,2.31,0,0,1-1.57-1.7,58,58,0,0,0-7-17.48,2.3,2.3,0,0,1,.32-2.82l10-10a2.3,2.3,0,0,0-.14-3.42,24.4,24.4,0,0,0-26.52-2.76A2.3,2.3,0,0,1,281.29,176.74Z" transform="translate(-134.28 -145.18)"/><path class="cls-1" d="M250,180.89c32.78,0,57.4,35,38.65,69.61a35.33,35.33,0,0,1-14.53,14.41c-34.62,18.33-69.27-6.18-69.27-38.88A45.12,45.12,0,0,1,250,180.89" transform="translate(-134.28 -145.18)"/><path class="cls-2" d="M284.91,285c-26,19.55-43.42,19.83-69.83,0a2.84,2.84,0,0,0-3.41,0c-22.31,16.73-41.6,20.7-65.3,3.46a2.82,2.82,0,0,0-3.88.55l-4.62,6a2.83,2.83,0,0,0,.59,4c23.65,17.16,48.7,18.62,73.35,2.27a2.83,2.83,0,0,1,3.14,0c23.18,15.35,46.93,15.36,70.1,0a2.81,2.81,0,0,1,3.14,0c24.68,16.35,49.57,15,73.36-2.28a2.82,2.82,0,0,0,.58-4l-4.62-6a2.82,2.82,0,0,0-3.88-.55C330.16,305.51,311,302,288.32,285A2.84,2.84,0,0,0,284.91,285Z" transform="translate(-134.28 -145.18)"/><path class="cls-2" d="M284.91,321.52c-26,19.54-43.44,19.81-69.83,0a2.84,2.84,0,0,0-3.41,0c-22.29,16.73-41.62,20.68-65.3,3.46a2.81,2.81,0,0,0-3.88.55l-4.63,6a2.84,2.84,0,0,0,.6,4c23.65,17.17,48.71,18.63,73.35,2.28a2.82,2.82,0,0,1,3.15,0c23.15,15.35,46.92,15.35,70.09,0a2.81,2.81,0,0,1,3.14,0c24.66,16.34,49.58,15,73.36-2.28a2.83,2.83,0,0,0,.58-4l-4.62-6a2.81,2.81,0,0,0-3.88-.55c-23.82,17.34-42.88,13.36-65.31-3.46A2.82,2.82,0,0,0,284.91,321.52Z" transform="translate(-134.28 -145.18)"/><circle class="cls-3" cx="115.72" cy="80.86" r="29.97"/><text class="cls-4" transform="translate(103.52 86.51)">g<tspan class="cls-5" x="22.98" y="0">.</tspan></text></svg>