<svg id="Layer_1" data-name="Layer 1" xmlns="http://www.w3.org/2000/svg" viewBox="0 0 228 224.95"><defs><style>.cls-1,.cls-2{fill:none;stroke:#231f20;}.cls-1,.cls-3{stroke-miterlimit:10;}.cls-1,.cls-2,.cls-3{stroke-width:11px;}.cls-2{stroke-linecap:round;stroke-linejoin:round;}.cls-3{fill:#fff;stroke:#2f7066;}.cls-4{font-size:35.72px;fill:#b79b61;font-family:Futura-Medium, Futura;font-weight:500;}.cls-5{fill:#275b53;letter-spacing:0em;}</style></defs><title>SMART</title><path class="cls-1" d="M137.3,339.63l8.5-149.44a8.36,8.36,0,0,1,8.35-7.89h22.13a8.37,8.37,0,0,1,8.34,7.79l3,42.9a8.36,8.36,0,0,0,8.34,7.78h150a8.36,8.36,0,0,1,8.36,8.36v91a8.36,8.36,0,0,1-8.36,8.36H145.64A8.35,8.35,0,0,1,137.3,339.63Z" transform="translate(-131.78 -129.01)"/><path class="cls-2" d="M245.79,195c16.23-17.44,33-16.41,50.28,0" transform="translate(-131.78 -129.01)"/><path class="cls-2" d="M221.84,178.2c32-29.06,63.92-29.74,95.87,0" transform="translate(-131.78 -129.01)"/><ellipse class="cls-2" cx="33.61" cy="16.33" rx="23.16" ry="10.83"/><circle class="cls-3" cx="136.77" cy="164.25" r="27.88"/><text class="cls-4" transform="translate(125.42 169.52)">g<tspan class="cls-5" x="21.39" y="0">.</tspan></text></svg>